<?xml version="1.0" encoding="UTF-8"?>
<svg id="Layer_1" data-name="Layer 1" xmlns="http://www.w3.org/2000/svg" viewBox="0 0 432 36.75">
  <defs>
    <style>
      .cls-1 {
        fill: #00215c;
      }

      .cls-2 {
        fill: #008df9;
      }
    </style>
  </defs>
  <g>
    <path class="cls-1" d="M283.05,11.36V29.43h-.05v6.7h4.02v-2.08s.02-.07,.02-.11c.02-.23,.02-.47,.02-.73V11.36h0s12.89,0,12.89,0v-3.78h-6.7s-16.53,0-16.53,0h0s-6.7,0-6.7,0v3.78h13.01Z"/>
    <path class="cls-1" d="M228.1,32.28h-3.53V10.23c0-.16-.02-.31-.03-.46v-2.2h-4.02v26.8h.03c0,.1,0,.18,0,.25,.03,.5,.25,.82,.43,.99,.23,.23,.53,.37,.9,.41,.15,.02,.37,.03,.64,.03h19.08s.08-.01,.12-.01h.63v-3.77h-14.26Z"/>
    <path class="cls-1" d="M202.03,32.28h-3.53V10.23c0-.12-.02-.24-.03-.36v-2.3h-4.02v26.8h.03c0,.1,0,.18,0,.25,.03,.5,.25,.82,.43,.99,.23,.23,.53,.37,.9,.41,.15,.02,.37,.03,.64,.03h19.08s.08-.01,.12-.01h1.94v-3.77h-15.56Z"/>
    <path class="cls-1" d="M170.39,11.36v8.1h17.06s.03,0,.05,0h2.19v3.82h-2.06s-.02,0-.02,0h-17.21v9h13.18s6.7,0,6.7,0v3.77h-1.88s-.04,0-.06,0h-20.31c-.23,0-.4-.02-.56-.05-.38-.08-.7-.32-.89-.66-.11-.2-.18-.44-.2-.71,0-.11-.01-.29-.01-.51V9.81c0-.26,0-.47,.01-.62,.01-.31,.08-.57,.21-.8,.18-.34,.5-.59,.88-.7,.21-.06,.47-.09,.79-.09h15.31s6.7,0,6.7,0v3.78h-20.15"/>
    <path class="cls-1" d="M150.28,11.36v21.84c0,.09,0,.17,0,.26v2.67h-4.02v-6.7h0V11.36s-12.97,.04-12.97,0v-3.78h6.7s16.53,0,16.53,0h0s6.7,0,6.7,0v3.78h-12.94Z"/>
    <path class="cls-1" d="M73.59,16.9v12.44h0v6.71h-1.96s0,0-.01,0c0,0,0,0-.01,0h-2.03v-6.71h0v-13.28h0V7.75l23.71,20.02V14.13h0V7.42h4.02V27.44h0v9.31l-23.71-19.85Z"/>
    <path class="cls-1" d="M358.64,16.9v12.44h0v6.71h-1.96s0,0-.01,0c0,0,0,0-.01,0h-2.03v-6.71h0v-13.28h0V7.75l23.71,20.02V14.13h0V7.42h4.02V27.44h0v9.31l-23.71-19.85Z"/>
    <path class="cls-1" d="M6.9,13.46c1-.86,2.32-1.51,3.92-1.93,1.68-.44,3.74-.66,6.14-.66,1.57,0,3.21,.18,4.86,.54,1.64,.36,3.26,.9,4.88,1.65,.13,.05,.21,.07,.31,.1,.41-1.32,.87-2.47,1.32-3.41-.11-.07-.21-.15-.33-.22-1.84-.85-3.68-1.47-5.47-1.86-1.79-.38-3.66-.58-5.56-.58-2.7,0-5.11,.27-7.17,.79-2.13,.54-3.94,1.42-5.39,2.61-1.47,1.21-2.58,2.78-3.32,4.67-.72,1.84-1.08,4.08-1.08,6.66s.36,4.82,1.08,6.66c.74,1.89,1.85,3.46,3.32,4.67,1.44,1.19,3.26,2.07,5.39,2.61,2.06,.52,4.47,.79,7.17,.79,1.9,0,3.77-.19,5.55-.58,1.78-.38,3.62-1.01,5.48-1.85,.08-.04,.14-.09,.21-.13-.46-1.2-.85-2.38-1.17-3.52-.16,.03-.31,.08-.42,.15-1.54,.72-3.15,1.26-4.8,1.62-1.65,.36-3.28,.54-4.86,.54-2.4,0-4.47-.22-6.14-.66-1.6-.42-2.92-1.07-3.92-1.93-.99-.86-1.7-1.93-2.16-3.27-.48-1.39-.72-3.11-.72-5.09s.24-3.7,.72-5.09c.46-1.34,1.17-2.41,2.16-3.27Z"/>
    <path class="cls-1" d="M60.54,10.74c-1.39-1.24-3.17-2.17-5.27-2.77-2.04-.58-4.48-.88-7.25-.88s-5.21,.3-7.25,.88c-2.1,.6-3.88,1.53-5.26,2.77-1.4,1.25-2.45,2.83-3.13,4.71-.65,1.82-.98,3.96-.98,6.37s.33,4.56,.98,6.37c.67,1.87,1.73,3.46,3.13,4.71,1.39,1.24,3.16,2.17,5.26,2.77,2.04,.58,4.48,.88,7.25,.88s5.21-.3,7.25-.88c2.1-.6,3.88-1.53,5.27-2.77,1.41-1.25,2.47-2.84,3.14-4.71,.65-1.82,.98-3.96,.98-6.37s-.33-4.55-.98-6.37c-.67-1.87-1.73-3.46-3.14-4.71Zm-.67,16.28c-.49,1.33-1.24,2.44-2.23,3.27-1.01,.85-2.3,1.48-3.84,1.87-1.62,.41-3.56,.61-5.77,.61s-4.15-.21-5.77-.61c-1.54-.39-2.83-1.01-3.83-1.87-.98-.84-1.73-1.94-2.22-3.28-.52-1.39-.78-3.14-.78-5.2s.26-3.79,.78-5.19c.49-1.34,1.24-2.45,2.22-3.28,1-.85,2.28-1.48,3.83-1.87,1.62-.41,3.56-.61,5.77-.61s4.15,.21,5.77,.61c1.55,.39,2.84,1.02,3.84,1.87,.99,.84,1.74,1.94,2.23,3.28,.52,1.4,.78,3.15,.78,5.19s-.26,3.81-.78,5.2Z"/>
    <path class="cls-1" d="M128.48,21.49c-.92-.59-2.01-1.05-3.23-1.37-1.15-.31-2.38-.55-3.68-.72-1.29-.17-2.64-.26-4-.26h-3.86c-1.19,0-2.32-.08-3.37-.24-1.02-.16-1.92-.39-2.66-.69-.67-.27-1.19-.62-1.56-1.04-.31-.35-.45-.81-.45-1.42,0-.91,.22-1.62,.67-2.19,.49-.62,1.17-1.13,2.03-1.51,.92-.41,2.01-.71,3.24-.89,2.2-.32,4.67-.36,7.14-.13,1.04,.1,2.06,.24,3.04,.42,.97,.18,1.9,.4,2.77,.67,.83,.25,1.6,.54,2.29,.85,.04,.02,.09,.03,.14,.05,.66-1.54,1.31-2.66,1.77-3.37-.03-.02-.06-.05-.1-.07-.6-.32-1.36-.62-2.32-.91-.92-.28-1.97-.55-3.11-.78-1.14-.23-2.38-.42-3.68-.56-2.35-.25-4.82-.28-7.24-.06-1.1,.1-2.16,.27-3.15,.5-1.02,.24-1.98,.56-2.85,.96-.92,.42-1.72,.96-2.4,1.6-.7,.66-1.25,1.46-1.65,2.36-.4,.91-.6,1.96-.6,3.12,0,1.32,.31,2.46,.92,3.36,.58,.87,1.38,1.59,2.36,2.13,.92,.51,2.01,.9,3.22,1.16,1.15,.24,2.38,.43,3.66,.56,2.49,.25,5.25,.14,7.73,.35,1.21,.1,2.37,.25,3.44,.44,1.01,.18,1.9,.45,2.64,.79,.66,.31,1.19,.72,1.56,1.21,.34,.45,.5,1.03,.5,1.79,0,.96-.21,1.73-.65,2.35-.47,.66-1.09,1.19-1.9,1.6-.86,.44-1.87,.75-3.02,.94-2.46,.4-5.31,.37-8.09,.04-1.43-.17-2.81-.38-4.08-.63-1.27-.25-2.41-.53-3.4-.81-.97-.28-1.72-.54-2.25-.78-.01,0-.02,0-.03,0-.53,1.36-1.08,2.46-1.56,3.28,.11,.09,.23,.19,.37,.27,.58,.3,1.38,.61,2.45,.93,1.02,.31,2.21,.6,3.54,.86,1.32,.26,2.76,.49,4.27,.66,1.53,.18,3.09,.27,4.63,.27,1.11,0,2.21-.05,3.29-.16,1.1-.11,2.16-.3,3.15-.56,1-.27,1.95-.63,2.81-1.07,.9-.46,1.68-1.03,2.34-1.69,.68-.68,1.21-1.5,1.59-2.42,.38-.92,.57-1.98,.57-3.14,0-1.39-.3-2.6-.88-3.6-.57-.97-1.36-1.78-2.34-2.4Z"/>
    <path class="cls-1" d="M273.49,32.88l-11.67-23.48c-.3-.58-.52-.95-.74-1.19-.78-.87-2.19-.76-2.81,.1-.17,.23-.37,.58-.63,1.1l-10.94,22.03h-.01s-2.26,4.62-2.26,4.62h4.6l1.28-2.82h0s2.59-5.24,2.59-5.24h13.67l2.59,5.23h0s1.28,2.83,1.28,2.83h4.6l-1.5-3.06s-.02-.08-.04-.12Zm-18.88-8.49l5.13-10.44,5.13,10.44h-10.25Z"/>
    <path class="cls-1" d="M345.56,10.74c-1.39-1.24-3.17-2.17-5.27-2.77-2.04-.58-4.48-.88-7.25-.88s-5.21,.3-7.25,.88c-2.1,.6-3.88,1.53-5.26,2.77-1.4,1.25-2.45,2.83-3.13,4.71-.65,1.82-.98,3.96-.98,6.37s.33,4.56,.98,6.37c.67,1.87,1.73,3.46,3.13,4.71,1.39,1.24,3.16,2.17,5.26,2.77,2.04,.58,4.48,.88,7.25,.88s5.21-.3,7.25-.88c2.1-.6,3.88-1.53,5.27-2.77,1.41-1.25,2.47-2.84,3.14-4.71,.65-1.82,.99-3.96,.99-6.37s-.33-4.55-.99-6.37c-.67-1.87-1.73-3.45-3.14-4.71Zm-.67,16.28c-.49,1.33-1.24,2.44-2.23,3.27-1.01,.85-2.3,1.48-3.84,1.87-1.62,.41-3.56,.61-5.77,.61s-4.15-.21-5.77-.61c-1.54-.39-2.83-1.01-3.83-1.87-.98-.84-1.73-1.94-2.22-3.28-.52-1.39-.78-3.14-.78-5.2s.26-3.79,.78-5.19c.49-1.34,1.24-2.45,2.22-3.28,1-.85,2.28-1.48,3.83-1.87,1.62-.41,3.56-.61,5.77-.61s4.15,.21,5.77,.61c1.55,.39,2.84,1.02,3.84,1.87,.99,.84,1.74,1.94,2.23,3.28,.52,1.4,.78,3.15,.78,5.19s-.26,3.81-.78,5.2Z"/>
    <rect class="cls-1" x="305.45" y="7.59" width="4.01" height="28.47"/>
  </g>
  <path class="cls-2" d="M430.77,10.42c-.84-2.34-2.16-4.31-3.91-5.87-1.74-1.54-3.95-2.7-6.57-3.45-2.54-.73-5.58-1.1-9.03-1.1s-6.49,.37-9.03,1.1c-2.62,.75-4.83,1.91-6.56,3.46-1.75,1.56-3.06,3.53-3.9,5.87-.81,2.27-1.23,4.94-1.23,7.94s.41,5.68,1.23,7.94c.84,2.33,2.15,4.31,3.9,5.87,1.73,1.54,3.94,2.71,6.56,3.46,1.73,.5,3.71,.81,5.87,.97v-2.98h.01V16.4c0-.26-.05-.42-.16-.51-.11-.08-.3-.09-.59-.02l-5.21,1.4-.38,.05c-.54,0-.81-.32-.81-.96v-3.18c0-.32,.05-.55,.16-.7,.11-.14,.32-.3,.64-.46l8.96-3.99c.5-.22,.9-.38,1.21-.46,.3-.08,.65-.12,1.05-.12h3.7c.25,0,.45,.08,.59,.24,.14,.16,.22,.37,.22,.63v25.31h0v2.61c.97-.16,1.92-.35,2.78-.6,2.62-.75,4.83-1.91,6.57-3.45,1.76-1.56,3.08-3.53,3.91-5.87,.81-2.27,1.23-4.94,1.23-7.94s-.41-5.68-1.23-7.94Z"/>
</svg>